<svg fill="#000000" xmlns="http://www.w3.org/2000/svg" viewBox="0 0 24 24" width="50px" height="50px"><path d="M 9.6542969 2.0019531 C 8.9297656 2.0441016 8.24875 2.6236719 8.28125 3.4980469 C 8.31625 4.4380469 7.4561094 5.1598906 6.5371094 4.9628906 C 5.1671094 4.6688906 4.2250625 6.3027969 5.1640625 7.3417969 C 5.7950625 8.0387969 5.6005313 9.1420313 4.7695312 9.5820312 C 3.5315313 10.237031 3.8590938 12.095109 5.2460938 12.287109 C 6.1780938 12.416109 6.7387656 13.388766 6.3847656 14.259766 C 6.2011314 14.711708 6.266104 15.147858 6.4667969 15.5 L 4.7285156 18.498047 A 1.0001 1.0001 0 0 0 5.59375 20 L 7.3574219 20 L 7.3574219 20.001953 L 8.0585938 21.539062 A 1.0001 1.0001 0 0 0 9.8261719 21.638672 L 11.984375 18.041016 L 14.142578 21.638672 A 1.0001 1.0001 0 0 0 15.910156 21.539062 L 16.611328 20 L 18.375 20 A 1.0001 1.0001 0 0 0 19.240234 18.498047 L 17.519531 15.53125 C 17.734495 15.174247 17.806455 14.725047 17.617188 14.259766 C 17.263188 13.388766 17.823859 12.416109 18.755859 12.287109 C 20.141859 12.095109 20.468469 10.237031 19.230469 9.5820312 C 18.399469 9.1420313 18.204937 8.0387969 18.835938 7.3417969 C 19.774938 6.3027969 18.831891 4.6688906 17.462891 4.9628906 C 16.542891 5.1608906 15.68375 4.4380469 15.71875 3.4980469 C 15.77075 2.0990469 13.998672 1.4555469 13.138672 2.5605469 C 12.560672 3.3025469 11.438328 3.3025469 10.861328 2.5605469 C 10.538828 2.1461719 10.089016 1.9766641 9.6542969 2.0019531 z M 14.583984 7.125 C 14.839984 7.125 15.096016 7.2229687 15.291016 7.4179688 C 15.681016 7.8079687 15.681016 8.4400781 15.291016 8.8300781 L 12.167969 11.953125 C 11.793969 12.327125 11.190922 12.344234 10.794922 11.990234 L 9.2460938 10.605469 C 8.8190938 10.222469 8.8010312 9.5602969 9.2070312 9.1542969 L 9.2402344 9.1210938 C 9.6002344 8.7600937 10.174266 8.7288281 10.572266 9.0488281 L 11.5 9.7949219 L 13.876953 7.4179688 C 14.071953 7.2229687 14.327984 7.125 14.583984 7.125 z M 9.1171875 15.808594 C 9.6876481 15.754759 10.254123 16.05283 10.529297 16.583984 L 9.0585938 19.033203 C 8.7050865 18.418666 8.0768817 18 7.3574219 18 L 7.3300781 18 L 8.4726562 16.03125 C 8.4779204 16.028031 8.483027 16.026734 8.4882812 16.023438 C 8.6875312 15.898438 8.9017812 15.828922 9.1171875 15.808594 z M 14.884766 15.808594 C 15.089979 15.82796 15.29314 15.89565 15.484375 16.009766 L 16.638672 18 L 16.611328 18 C 15.892671 18 15.263816 18.417354 14.910156 19.033203 L 13.458984 16.615234 C 13.727873 16.064958 14.303556 15.753744 14.884766 15.808594 z"/></svg>