<svg fill="#000000" xmlns="http://www.w3.org/2000/svg" viewBox="0 0 24 24" width="50px" height="50px"><path d="M 12.242188 0.86328125 C 11.798438 0.83953125 11.275703 0.8740625 10.720703 1.0390625 C 9.0307031 1.5390625 7.7094531 3.05 7.1894531 5 L 9.2890625 5 C 9.6890625 3.98 10.409062 3.2209375 11.289062 2.9609375 C 11.929063 2.7709375 12.500703 2.8909375 12.720703 2.9609375 C 13.590703 3.2209375 14.310937 3.98 14.710938 5 L 16.810547 5 C 16.290547 3.05 14.969063 1.5390625 13.289062 1.0390625 C 13.049063 0.9690625 12.685937 0.88703125 12.242188 0.86328125 z M 16.810547 5 C 16.890547 5.28 16.950234 5.559375 16.990234 5.859375 C 17.070234 6.409375 16.690625 6.9102344 16.140625 6.9902344 C 16.090625 7.0002344 16.04 7 16 7 C 15.51 7 15.079766 6.640625 15.009766 6.140625 C 14.949766 5.730625 14.850938 5.35 14.710938 5 L 9.2890625 5 C 9.1490625 5.35 9.0502344 5.730625 8.9902344 6.140625 C 8.9102344 6.690625 8.409375 7.0702344 7.859375 6.9902344 C 7.309375 6.9102344 6.9297656 6.409375 7.0097656 5.859375 C 7.0497656 5.559375 7.1094531 5.28 7.1894531 5 L 4.0195312 5 C 3.4195312 5 2.920625 5.4703125 2.890625 6.0703125 L 2.0097656 21.800781 C 1.9697656 22.450781 2.490625 23 3.140625 23 L 20.859375 23 C 21.509375 23 22.030234 22.450781 21.990234 21.800781 L 21.099609 6.0703125 C 21.069609 5.4703125 20.570703 5 19.970703 5 L 16.810547 5 z M 12 9 C 14.2 9 15.78 10.960078 16 12.580078 C 16.17 13.830078 15.47 14.98 14 17.25 C 13.62 17.83 13.239922 18.370547 12.919922 18.810547 C 12.459922 19.430547 11.540078 19.430547 11.080078 18.810547 C 10.760078 18.370547 10.38 17.83 10 17.25 C 8.53 14.98 7.83 13.830078 8 12.580078 C 8.22 10.960078 9.8 9 12 9 z M 12 12 A 1 1 0 0 0 12 14 A 1 1 0 0 0 12 12 z"/></svg>