<svg xmlns="http://www.w3.org/2000/svg" viewBox="0 0 64 64" width="64px" height="64px"><path fill="#f9e3ae" d="M55.862,57H7.134c-1.808,0-3.215-1.5-3.014-3.3l3.416-36c0.1-1.5,1.407-2.7,3.014-2.7h42.7 c1.608,0,2.914,1.2,3.014,2.8l2.612,36C58.976,55.5,57.57,57,55.862,57z"/><path fill="#faefde" d="M7.837,15h48.226v4H7.837V15z"/><path fill="#f6d397" d="M55.359,46H8.54c-1.608,0-2.813,1.2-3.014,2.7l-0.502,5C4.823,55.5,6.229,57,8.038,57h47.623 c1.808,0,3.115-1.5,3.014-3.3l-0.502-5C58.172,47.2,56.866,46,55.359,46z"/><path fill="#72caaf" d="M21,23c-1.105,0-2,0.895-2,2s0.895,2,2,2s2-0.895,2-2S22.105,23,21,23z M43.001,23 c-1.11,0-2.009,0.895-2.009,2s0.9,2,2.009,2c1.11,0,2.009-0.895,2.009-2S44.111,23,43.001,23z"/><path fill="#8d6c9f" d="M9,50c-0.6,0-1,0.4-1,1v2c0,0.6,0.4,1,1,1s1-0.4,1-1v-2C10,50.4,9.6,50,9,50z M14,50 c-0.6,0-1,0.4-1,1v2c0,0.6,0.4,1,1,1s1-0.4,1-1v-2C15,50.4,14.6,50,14,50z M19,50c-0.6,0-1,0.4-1,1v2c0,0.6,0.4,1,1,1s1-0.4,1-1 v-2C20,50.4,19.6,50,19,50z M24,50c-0.6,0-1,0.4-1,1v2c0,0.6,0.4,1,1,1s1-0.4,1-1v-2C25,50.4,24.6,50,24,50z M29,50 c-0.6,0-1,0.4-1,1v2c0,0.6,0.4,1,1,1s1-0.4,1-1v-2C30,50.4,29.6,50,29,50z M35,50c-0.6,0-1,0.4-1,1v2c0,0.6,0.4,1,1,1s1-0.4,1-1 v-2C36,50.4,35.6,50,35,50z M40,50c-0.6,0-1,0.4-1,1v2c0,0.6,0.4,1,1,1s1-0.4,1-1v-2C41,50.4,40.6,50,40,50z M45,50 c-0.6,0-1,0.4-1,1v2c0,0.6,0.4,1,1,1s1-0.4,1-1v-2C46,50.4,45.6,50,45,50z M50,50c-0.6,0-1,0.4-1,1v2c0,0.6,0.4,1,1,1s1-0.4,1-1 v-2C51,50.4,50.6,50,50,50z M54,51v2c0,0.6,0.4,1,1,1s1-0.4,1-1v-2c0-0.6-0.4-1-1-1S54,50.4,54,51z"/><path fill="#8d6c9f" d="M59.981,54.7l-2.813-37.9c-0.1-1.6-1.407-2.8-3.014-2.8H9.746c-1.608,0-2.914,1.2-3.014,2.8 l-2.713,38c-0.1,0.8,0.201,1.6,0.804,2.2c0.603,0.6,1.407,1,2.21,1h49.934c0.804,0,1.608-0.3,2.21-1 C59.78,56.3,60.081,55.6,59.981,54.7z M57.67,55.7c-0.201,0.2-0.502,0.3-0.703,0.3H6.933c-0.301,0-0.502-0.1-0.703-0.3 c-0.201-0.2-0.301-0.5-0.301-0.8L8.44,20h34.562c0.603,0,1.005-0.4,1.005-1c0-0.6-0.402-1-1.005-1H8.641l0.1-1.1 c0-0.5,0.502-0.9,1.005-0.9h44.508c0.502,0,1.005,0.4,1.005,0.9l2.713,38C57.972,55.2,57.871,55.5,57.67,55.7z"/><path fill="#8d6c9f" d="M51.039,18H47.02c-0.603,0-1.005,0.4-1.005,1s0.402,1,1.005,1h4.019c0.603,0,1.005-0.4,1.005-1 S51.642,18,51.039,18z"/><path fill="#8d6c9f" d="M21,28c-1.654,0-3-1.346-3-3s1.346-3,3-3s3,1.346,3,3S22.654,28,21,28z M21,24 c-0.551,0-1,0.448-1,1s0.449,1,1,1s1-0.448,1-1S21.551,24,21,24z"/><path fill="#8d6c9f" d="M43,28c-1.654,0-3-1.346-3-3s1.346-3,3-3s3,1.346,3,3S44.654,28,43,28z M43,24 c-0.551,0-1,0.448-1,1s0.449,1,1,1s1-0.448,1-1S43.551,24,43,24z"/><path fill="#8d6c9f" d="M43,24c-0.552,0-1-0.447-1-1v-8c0-5.514-4.486-10-10-10S22,9.486,22,15v8c0,0.553-0.448,1-1,1 s-1-0.447-1-1v-8c0-6.617,5.383-12,12-12s12,5.383,12,12v8C44,23.553,43.552,24,43,24z"/><path fill="#ed7899" d="M26,33.921C26,30.651,28.686,28,32,28s6,2.651,6,5.921c0,4.258-5.335,7.858-6,13.079 C31.335,41.752,26,38.151,26,33.921z"/><path fill="#8d6c9f" d="M32,48C32,48,32,48,32,48c-0.504,0-0.929-0.375-0.992-0.874c-0.303-2.393-1.722-4.48-3.094-6.499 C26.416,38.422,25,36.339,25,33.921C25,30.104,28.14,27,32,27s7,3.104,7,6.921c0,2.438-1.422,4.53-2.927,6.746 c-1.366,2.01-2.779,4.089-3.081,6.459C32.928,47.626,32.503,48,32,48z M32,29c-2.757,0-5,2.207-5,4.921 c0,1.803,1.248,3.639,2.568,5.582c0.844,1.242,1.755,2.582,2.435,4.059c0.677-1.46,1.579-2.787,2.416-4.019 C35.746,37.589,37,35.744,37,33.921C37,31.207,34.757,29,32,29z"/><g><path fill="#8d6c9f" d="M32,32c-1.105,0-2,0.895-2,2s0.895,2,2,2c1.105,0,2-0.895,2-2S33.105,32,32,32z"/></g><g><path fill="#8d6c9f" d="M21,28c-1.654,0-3-1.346-3-3s1.346-3,3-3s3,1.346,3,3S22.654,28,21,28z M21,24c-0.551,0-1,0.448-1,1 s0.449,1,1,1s1-0.448,1-1S21.551,24,21,24z"/></g></svg>