<svg xmlns="http://www.w3.org/2000/svg" viewBox="0 0 64 64" width="50px" height="50px"><rect width="62" height="10" x="1" y="41" fill="#c2cde7" rx="2" ry="2"/><rect width="2" height="56" x="31" y="18" fill="#d5e0f3" rx="1" ry="1" transform="rotate(-90 32 46)"/><path fill="#ed7899" d="M61 41L41 41 41 21 51 21 61 35.08 61 41z"/><path fill="#bbdef9" d="M54 33L45 33 45 25 51 25 54 33z"/><path fill="#85cbf8" d="M3 11H41V41H3z"/><path fill="#6fc6f0" d="M41,11H3v2a3,3,0,0,0,3,3H38a3,3,0,0,0,3-3Z"/><rect width="42" height="4" x="1" y="7" fill="#f9e3ae" rx="2" ry="2"/><path fill="#acb7d0" d="M15 45A6 6 0 1 0 15 57 6 6 0 1 0 15 45zM51 45A6 6 0 1 0 51 57 6 6 0 1 0 51 45z"/><path fill="#f9e3ae" d="M22 15A11 11 0 1 0 22 37A11 11 0 1 0 22 15Z"/><path fill="#8d6c9f" d="M22,38A12,12,0,1,0,10,26,12,12,0,0,0,22,38Zm0-22A10,10,0,1,1,12,26,10,10,0,0,1,22,16Z"/><path fill="#8d6c9f" d="M17 32a1 1 0 0 0 .71-.29l5-5A1 1 0 0 0 23 26V19a1 1 0 0 0-2 0v6.59l-4.71 4.71A1 1 0 0 0 17 32zM7 44a1 1 0 0 0-1 1v2a1 1 0 0 0 2 0V45A1 1 0 0 0 7 44zM23 44a1 1 0 0 0-1 1v2a1 1 0 0 0 2 0V45A1 1 0 0 0 23 44zM28 44a1 1 0 0 0-1 1v2a1 1 0 0 0 2 0V45A1 1 0 0 0 28 44zM33 44a1 1 0 0 0-1 1v2a1 1 0 0 0 2 0V45A1 1 0 0 0 33 44zM38 44a1 1 0 0 0-1 1v2a1 1 0 0 0 2 0V45A1 1 0 0 0 38 44zM43 44a1 1 0 0 0-1 1v2a1 1 0 0 0 2 0V45A1 1 0 0 0 43 44zM59 44a1 1 0 0 0-1 1v2a1 1 0 0 0 2 0V45A1 1 0 0 0 59 44zM45 38h2a1 1 0 0 0 0-2H45a1 1 0 0 0 0 2z"/><path fill="#8d6c9f" d="M62,40.17A1,1,0,0,0,62,40V36.17a5,5,0,0,0-.79-2.7L54,22.3A5,5,0,0,0,49.82,20H48V18a1,1,0,0,0-2,0v2H42V11.82A3,3,0,0,0,41,6H3a3,3,0,0,0-1,5.82V40.18A3,3,0,0,0,0,43v6a3,3,0,0,0,3,3H8.08a7,7,0,0,0,13.84,0H44.08a7,7,0,0,0,13.84,0H61a3,3,0,0,0,3-3V43A3,3,0,0,0,62,40.17ZM49.82,22a3,3,0,0,1,2.52,1.38l7.18,11.17A3,3,0,0,1,60,36.17V40H42V22ZM40,12V40H4V12ZM3,8H41a1,1,0,0,1,0,2H3A1,1,0,0,1,3,8ZM15,56a5,5,0,1,1,5-5A5,5,0,0,1,15,56Zm36,0a5,5,0,1,1,5-5A5,5,0,0,1,51,56Zm11-7a1,1,0,0,1-1,1H57.92a7,7,0,0,0-13.84,0H21.92A7,7,0,0,0,8.08,50H3a1,1,0,0,1-1-1V48a1,1,0,0,0,1-1V45a1,1,0,0,0-1-1V43a1,1,0,0,1,1-1H61a1,1,0,0,1,1,1Z"/><path fill="#8d6c9f" d="M51 49A2 2 0 1 0 51 53 2 2 0 1 0 51 49zM15 49A2 2 0 1 0 15 53 2 2 0 1 0 15 49zM46 34h7.2a2 2 0 0 0 1.7-3.06l-3.75-6a2 2 0 0 0-1.7-.94H46a2 2 0 0 0-2 2v6A2 2 0 0 0 46 34zm0-8h3.45l3.76 6H46z"/></svg>