<svg fill="#000000" xmlns="http://www.w3.org/2000/svg" viewBox="0 0 50 50" width="50px" height="50px"><path d="M 3 8 C 1.347656 8 0 9.347656 0 11 L 0 35 C 0 36.652344 1.347656 38 3 38 L 7.09375 38 C 7.570313 40.835938 10.035156 43 13 43 C 15.964844 43 18.429688 40.835938 18.90625 38 L 28.1875 38 C 29.730469 38 31 36.730469 31 35.1875 L 31 11 C 31 9.347656 29.652344 8 28 8 Z M 33 13 L 33 38 L 33.09375 38 C 33.570313 40.835938 36.035156 43 39 43 C 41.964844 43 44.429688 40.835938 44.90625 38 L 47 38 C 48.542969 38 50 36.542969 50 35 L 50 25.40625 C 50 24.28125 49.570313 23.25 49.1875 22.46875 C 48.804688 21.6875 48.40625 21.125 48.40625 21.125 L 48.40625 21.09375 L 46.09375 18 L 44.28125 15.59375 L 44.28125 15.5625 C 44.089844 15.320313 43.847656 15.066406 43.5625 14.78125 C 42.828125 14.019531 41.910156 13.28125 40.71875 13.0625 C 40.488281 13.019531 40.246094 13 40 13 Z M 38 19 L 44.3125 19 L 46.78125 22.28125 L 46.8125 22.3125 C 46.832031 22.339844 47.101563 22.722656 47.40625 23.34375 C 47.652344 23.847656 47.851563 24.476563 47.9375 25 L 38 25 C 37.832031 25 37.5625 24.875 37.34375 24.65625 C 37.125 24.4375 37 24.167969 37 24 L 37 20 C 37 19.507813 37.601563 19 38 19 Z M 5 20 L 9 20 L 9 21.09375 L 6.3125 21.09375 L 6.3125 22.40625 L 8.6875 22.40625 L 8.6875 23.40625 L 6.3125 23.40625 L 6.3125 25.8125 L 5 25.8125 Z M 10 20 L 13 20 C 13.5 20 14.6875 20.292969 14.6875 21.59375 C 14.6875 22.492188 14.113281 22.898438 13.8125 23 C 14.011719 23 14.59375 23.195313 14.59375 24.59375 C 14.59375 24.695313 14.613281 25.394531 14.8125 25.59375 L 13.5 25.59375 C 13.398438 25.394531 13.40625 25.203125 13.40625 25 C 13.304688 24.101563 13.304688 23.40625 12.40625 23.40625 L 11.09375 23.40625 L 11.09375 25.59375 L 10 25.59375 Z M 16 20 L 20.1875 20 L 20.1875 21.09375 L 17.1875 21.09375 L 17.1875 22.3125 L 20 22.3125 L 20 23.3125 L 17.1875 23.3125 L 17.1875 24.6875 L 20.3125 24.6875 L 20.3125 25.8125 L 16 25.8125 Z M 21.6875 20 L 25.90625 20 L 25.90625 21.09375 L 22.90625 21.09375 L 22.90625 22.3125 L 25.6875 22.3125 L 25.6875 23.3125 L 22.90625 23.3125 L 22.90625 24.6875 L 26 24.6875 L 26 25.8125 L 21.6875 25.8125 Z M 11.1875 21 L 11.1875 22.59375 L 12.59375 22.59375 C 12.894531 22.59375 13.5 22.613281 13.5 21.8125 C 13.5 21.113281 12.894531 21 12.59375 21 Z M 13 33 C 15.222656 33 17 34.777344 17 37 C 17 39.222656 15.222656 41 13 41 C 10.777344 41 9 39.222656 9 37 C 9 34.777344 10.777344 33 13 33 Z M 39 33 C 41.222656 33 43 34.777344 43 37 C 43 39.222656 41.222656 41 39 41 C 36.777344 41 35 39.222656 35 37 C 35 34.777344 36.777344 33 39 33 Z"/></svg>