<svg fill="#000000" xmlns="http://www.w3.org/2000/svg" viewBox="0 0 24 24" width="48px" height="48px"><path d="M 11.830078 0 C 8.0694985 0 5 3.0694984 5 6.8300781 L 5 7 L 5 11 L 5 18 A 1.0001 1.0001 0 0 0 6 19 L 9 19 L 9 21 C 9 22.64497 10.35503 24 12 24 C 13.64497 24 15 22.64497 15 21 L 15 19 L 18 19 A 1.0001 1.0001 0 0 0 19 18 L 19 6.8300781 C 19 3.0694984 15.930502 -1.1842379e-15 12.169922 0 L 11.830078 0 z M 11.830078 2 L 12.169922 2 C 12.454577 2 12.729225 2.0354295 13 2.0820312 L 13 7 C 13 7.5650302 12.56503 8 12 8 C 11.43497 8 11 7.5650302 11 7 A 1.0001 1.0001 0 0 0 10.884766 6.5195312 A 1.0001 1.0001 0 0 0 10.466797 6.1015625 A 1.0001 1.0001 0 0 0 10.375 6.0585938 A 1.0001 1.0001 0 0 0 10.083984 5.9902344 A 1.0001 1.0001 0 0 0 9.984375 5.9863281 A 1.0001 1.0001 0 0 0 9.8847656 5.9921875 A 1.0001 1.0001 0 0 0 9.7871094 6.0097656 A 1.0001 1.0001 0 0 0 9.6894531 6.0351562 A 1.0001 1.0001 0 0 0 9.5078125 6.1152344 A 1.0001 1.0001 0 0 0 9.4238281 6.1699219 A 1.0001 1.0001 0 0 0 9.2714844 6.3007812 A 1.0001 1.0001 0 0 0 9.1503906 6.4589844 A 1.0001 1.0001 0 0 0 9.1015625 6.5449219 A 1.0001 1.0001 0 0 0 9.0019531 6.9296875 A 1.0001 1.0001 0 0 0 9 7 L 9 11 C 9 11.56503 8.5650302 12 8 12 C 7.4349698 12 7 11.56503 7 11 L 7 7 L 7 6.8300781 C 7 4.1506578 9.1506579 2 11.830078 2 z M 11 19 L 13 19 L 13 21 C 13 21.56503 12.56503 22 12 22 C 11.43497 22 11 21.56503 11 21 L 11 19 z"/></svg>