<?xml version="1.0"?><svg fill="#000000" xmlns="http://www.w3.org/2000/svg" viewBox="0 0 24 24" width="48px" height="48px">    <path d="M 5 3 C 4.448 3 4 3.448 4 4 L 4 7 L 2.0722656 11.820312 C 2.0242656 11.938313 2 12.065359 2 12.193359 L 2 13 C 2 13.552 2.448 14 3 14 L 3 19 C 3 20.105 3.895 21 5 21 L 12 21 C 12.552 21 13 20.552 13 20 C 13 19.448 12.552 19 12 19 L 5.5 19 C 5.224 19 5 18.776 5 18.5 L 5 14.5 C 5 14.224 5.224 14 5.5 14 L 13.115234 14 C 14.064234 12.739 15.449953 12.003 17.001953 12 C 17.681953 12 18.380953 12.176516 19.001953 12.478516 C 19.624953 12.174516 20.320047 12 20.998047 12 L 21 12 L 21.001953 12 L 21.003906 12 C 21.340906 12.001 21.665375 12.046281 21.984375 12.113281 C 21.976375 12.014281 21.965734 11.915266 21.927734 11.822266 L 20 7 L 20 4 C 20 3.448 19.552 3 19 3 L 5 3 z M 7 5 C 7.552 5 8 5.448 8 6 C 8 6.552 7.552 7 7 7 C 6.448 7 6 6.552 6 6 C 6 5.448 6.448 5 7 5 z M 10 5 C 10.552 5 11 5.448 11 6 C 11 6.552 10.552 7 10 7 C 9.448 7 9 6.552 9 6 C 9 5.448 9.448 5 10 5 z M 17 14 C 15.782 14.002 14.8385 14.747703 14.3125 15.845703 C 13.1095 18.358703 15.691969 20.693172 16.667969 21.576172 L 16.830078 21.724609 C 17.499078 22.349609 19 23.378906 19 23.378906 C 19 23.378906 20.500922 22.348609 21.169922 21.724609 L 21.332031 21.576172 C 22.308031 20.693172 24.8905 18.358703 23.6875 15.845703 C 23.1615 14.747703 22.218 14.002 21 14 C 20.232 13.999 19.344 14.469 19 15 C 18.687 14.469 17.768 13.999 17 14 z"/></svg>