<?xml version="1.0"?><svg fill="#fed328" xmlns="http://www.w3.org/2000/svg" viewBox="0 0 24 24" width="48px" height="48px">    <path d="M12,2C6.486,2,2,6.486,2,12s4.486,10,10,10s10-4.486,10-10S17.514,2,12,2z M16.766,12.565l-2.4,2.4 C14.212,15.119,14.008,15.2,13.8,15.2c-0.103,0-0.207-0.02-0.306-0.061C13.195,15.015,13,14.723,13,14.4V13H8c-0.552,0-1-0.448-1-1 v0c0-0.552,0.448-1,1-1h5V9.6c0-0.323,0.195-0.615,0.494-0.739c0.3-0.123,0.643-0.055,0.872,0.173l2.4,2.4 C17.078,11.747,17.078,12.253,16.766,12.565z"/></svg>