<svg xmlns="http://www.w3.org/2000/svg" viewBox="0 0 64 64" width="50px" height="50px"><path fill="#c2cde7" d="M54 47L13 47 10 19 60 19 54 47z"/><path fill="#f9e3ae" d="M10 15H62V19H10z"/><path fill="#f283a5" d="M3 3A2 2 0 1 0 3 7A2 2 0 1 0 3 3Z"/><path fill="#ed7899" d="M25 51A4 4 0 1 0 25 59A4 4 0 1 0 25 51Z"/><path fill="#f283a5" d="M25 53A2 2 0 1 0 25 57A2 2 0 1 0 25 53Z"/><path fill="#ed7899" d="M45 51A4 4 0 1 0 45 59A4 4 0 1 0 45 51Z"/><path fill="#ced8ed" d="M22 47L12 47 10 19 21 19 22 47z"/><path fill="#b5c4e0" d="M10,19v2a3,3,0,0,0,3,3H44L42,47H54l6-28Z"/><path fill="#8d6c9f" d="M14 26a1 1 0 0 0 1-1V23a1 1 0 0 0-2 0v2A1 1 0 0 0 14 26zM19 26a1 1 0 0 0 1-1V23a1 1 0 0 0-2 0v2A1 1 0 0 0 19 26zM24 26a1 1 0 0 0 1-1V23a1 1 0 0 0-2 0v2A1 1 0 0 0 24 26zM29 26a1 1 0 0 0 1-1V23a1 1 0 0 0-2 0v2A1 1 0 0 0 29 26zM34 26a1 1 0 0 0 1-1V23a1 1 0 0 0-2 0v2A1 1 0 0 0 34 26zM39 26a1 1 0 0 0 1-1V23a1 1 0 0 0-2 0v2A1 1 0 0 0 39 26zM44 26a1 1 0 0 0 1-1V23a1 1 0 0 0-2 0v2A1 1 0 0 0 44 26zM49 26a1 1 0 0 0 1-1V23a1 1 0 0 0-2 0v2A1 1 0 0 0 49 26zM54 26a1 1 0 0 0 1-1V23a1 1 0 0 0-2 0v2A1 1 0 0 0 54 26zM47 44h4a1 1 0 0 0 0-2H47a1 1 0 0 0 0 2zM14 43a1 1 0 0 0 1 1H43a1 1 0 0 0 0-2H15A1 1 0 0 0 14 43z"/><path fill="#8d6c9f" d="M61,14H10.72l-.28-3.55a7,7,0,0,0-4.49-6,3,3,0,1,0-.37,2,5,5,0,0,1,2.86,4.1l2.79,35.26a11.07,11.07,0,0,0,8.85,9.92A5,5,0,0,0,29.9,56H40.1a5,5,0,1,0,0-2H29.9a5,5,0,0,0-9.72-.25A9.09,9.09,0,0,1,13.72,48H52.38a3,3,0,0,0,2.93-2.37L60.81,20H61a3,3,0,0,0,0-6ZM3,6.19A1.19,1.19,0,1,1,4.19,5,1.19,1.19,0,0,1,3,6.19ZM45,51.51A3.49,3.49,0,1,1,41.51,55,3.49,3.49,0,0,1,45,51.51Zm-20,.2A3.29,3.29,0,1,1,21.71,55,3.3,3.3,0,0,1,25,51.71Zm28.36-6.5a1,1,0,0,1-1,.79H13.26c0-.1,0-.19,0-.29L11.19,20H58.76ZM61,18H11l-.16-2H61a1,1,0,0,1,0,2Z"/><path fill="#f283a5" d="M45 53A2 2 0 1 0 45 57A2 2 0 1 0 45 53Z"/></svg>